<?xml version="1.0" encoding="iso-8859-1"?>
<!-- Uploaded to: SVG Repo, www.svgrepo.com, Generator: SVG Repo Mixer Tools -->
<svg height="800px" width="800px" version="1.1" id="Capa_1" xmlns="http://www.w3.org/2000/svg" xmlns:xlink="http://www.w3.org/1999/xlink" 
	 viewBox="0 0 46.398 46.398" xml:space="preserve">
<g>
	<path style="fill:#010002;" d="M45.773,44.472H1.25V1.301c0-0.345-0.28-0.625-0.625-0.625S0,0.956,0,1.301v43.796
		c0,0.345,0.28,0.625,0.625,0.625h45.148c0.345,0,0.625-0.28,0.625-0.625S46.118,44.472,45.773,44.472z"/>
	<path style="fill:#010002;" d="M21.302,17.282L7.677,37.612c-0.093,0.139-0.127,0.305-0.095,0.469
		c0.032,0.164,0.126,0.306,0.266,0.399c0.104,0.069,0.224,0.105,0.347,0.105c0.21,0,0.405-0.103,0.52-0.277l13.3-19.842l7.277,4.246
		c0.273,0.161,0.648,0.077,0.829-0.183l9.873-14.221l1.388,2.963c0.234,0.5,0.521,0.469,0.642-0.07l2.045-9.196
		c0.12-0.539-0.158-0.732-0.621-0.431l-7.9,5.132c-0.463,0.301-0.392,0.581,0.158,0.625l3.262,0.263l-9.543,13.747l-7.287-4.251
		C21.859,16.93,21.481,17.018,21.302,17.282z"/>
</g>
</svg>